<?xml version="1.0" standalone="no"?>
<!DOCTYPE svg PUBLIC "-//W3C//DTD SVG 20010904//EN"
 "http://www.w3.org/TR/2001/REC-SVG-20010904/DTD/svg10.dtd">
<svg version="1.0" xmlns="http://www.w3.org/2000/svg"
 width="166.000000pt" height="400.000000pt" viewBox="0 0 166.000000 400.000000"
 preserveAspectRatio="xMidYMid meet">
<metadata>
Created by potrace 1.16, written by Peter Selinger 2001-2019
</metadata>
<g transform="translate(0.000000,400.000000) scale(0.100000,-0.100000)"
fill="#000000" stroke="none">
<path d="M752 3970 c-31 -41 -29 -88 6 -126 l28 -31 -29 -94 c-15 -52 -32
-110 -36 -129 -4 -19 -17 -62 -28 -95 -11 -33 -33 -100 -49 -149 l-29 -88 -22
48 c-12 27 -22 55 -22 62 -1 8 -8 28 -16 45 -19 41 -65 166 -72 193 -3 14 4
30 22 48 24 24 27 33 22 74 -7 60 -33 82 -96 82 -57 0 -89 -27 -98 -84 -5 -33
-2 -40 35 -76 l42 -39 -11 -53 c-5 -29 -14 -93 -18 -143 -5 -49 -17 -132 -26
-183 -17 -90 -18 -92 -33 -70 -9 13 -18 25 -21 28 -8 7 -26 36 -51 81 -10 21
-25 43 -32 50 -7 8 -25 32 -39 54 -26 40 -26 41 -8 64 36 44 21 109 -31 136
-39 20 -69 19 -107 -5 -31 -19 -33 -23 -33 -79 l0 -60 54 -26 c53 -26 54 -27
71 -93 57 -226 104 -405 141 -537 l27 -95 538 0 538 0 6 38 c4 20 17 75 30
122 13 47 35 132 50 190 15 58 37 146 50 195 13 50 27 105 32 124 7 28 15 37
40 43 52 13 83 49 83 94 0 50 -20 79 -65 94 -45 15 -103 -4 -116 -38 -13 -34
-11 -86 5 -107 14 -20 10 -31 -29 -90 -11 -17 -24 -37 -30 -46 -5 -9 -29 -45
-52 -80 -24 -35 -44 -68 -46 -74 -8 -20 -17 3 -26 71 -29 200 -53 361 -58 381
-4 16 0 25 13 29 32 12 63 57 64 92 0 19 -9 46 -22 62 -19 27 -28 30 -74 30
-45 0 -56 -4 -73 -26 -30 -38 -29 -105 3 -135 27 -26 28 -24 -51 -229 -14 -36
-33 -86 -42 -112 -9 -26 -18 -48 -21 -48 -6 0 -15 26 -65 195 -54 179 -64 211
-87 284 l-24 73 28 28 c35 36 38 94 7 134 -17 22 -28 26 -73 26 -46 0 -55 -3
-74 -30z"/>
<path d="M290 2570 l0 -70 540 0 540 0 0 70 0 70 -540 0 -540 0 0 -70z"/>
<path d="M0 1240 l0 -1240 275 0 275 0 0 545 0 545 270 0 270 0 0 -545 0 -545
280 0 280 0 0 1240 0 1240 -280 0 -280 0 0 -415 0 -415 -270 0 -270 0 0 415 0
415 -275 0 -275 0 0 -1240z"/>
</g>
</svg>
